<svg xmlns="http://www.w3.org/2000/svg" version="1.1" xmlns:xlink="http://www.w3.org/1999/xlink" xmlns:svgjs="http://svgjs.com/svgjs" width="1024.000000pt" height="1024.000000pt"><svg version="1.0" xmlns="http://www.w3.org/2000/svg" width="1024.000000pt" height="1024.000000pt" viewBox="0 0 1024.000000 1024.000000" preserveAspectRatio="xMidYMid meet">

<g transform="translate(0.000000,1024.000000) scale(0.100000,-0.100000)" fill="#000000" stroke="none">
<path d="M3083 8689 c-40 -5 -108 -18 -153 -29 -615 -157 -1069 -650 -1155
-1255 -22 -150 -22 -4365 -1 -4535 35 -278 164 -561 363 -800 79 -94 141 -151
260 -236 156 -114 422 -218 619 -245 66 -9 613 -12 2109 -13 l2020 -1 103 23
c317 71 543 194 753 409 212 217 342 457 411 761 l22 97 3 1419 4 1419 -413
-408 c-227 -224 -421 -422 -431 -439 -22 -38 -16 -84 14 -108 16 -14 39 -18
96 -18 65 0 77 -3 98 -25 l25 -24 0 -834 c0 -702 -2 -848 -15 -922 -54 -308
-236 -563 -489 -685 -168 -81 23 -74 -2141 -78 -1213 -2 -1971 1 -2040 7 -136
12 -253 52 -359 121 -101 66 -149 111 -219 205 -75 100 -128 211 -164 340
l-28 100 0 2200 0 2200 22 82 c27 103 89 236 147 317 64 90 200 214 290 265
43 24 124 60 179 80 l102 36 1959 3 1960 2 85 -21 c93 -23 242 -88 314 -138
160 -110 285 -278 354 -478 26 -76 27 -87 32 -360 3 -155 10 -285 14 -290 5
-4 75 -11 155 -14 121 -5 159 -11 213 -31 77 -29 146 -67 193 -109 19 -16 36
-29 40 -29 10 0 7 636 -5 737 -27 248 -129 498 -288 709 -76 102 -205 233
-294 300 -208 156 -487 268 -732 294 -112 12 -3930 11 -4032 -1z"></path>
<path d="M3250 7777 c-105 -32 -184 -79 -265 -161 -77 -79 -121 -153 -157
-266 -22 -72 -23 -88 -23 -380 0 -287 1 -309 22 -375 31 -96 86 -185 163 -264
75 -76 153 -121 260 -150 74 -21 85 -21 1846 -21 1734 0 1772 0 1848 20 214
54 378 226 437 458 16 65 19 111 19 334 0 196 -4 278 -16 336 -47 231 -224
419 -449 477 -52 13 -277 15 -1835 14 l-1775 0 -75 -22z m3702 -249 c74 -34
146 -107 184 -183 l29 -60 0 -300 0 -300 -33 -67 c-42 -85 -105 -148 -190
-190 l-67 -33 -1775 0 -1775 0 -68 33 c-75 37 -156 112 -187 172 -44 86 -52
159 -47 410 3 193 8 244 22 285 46 127 132 210 260 251 32 10 401 12 1815 11
l1775 -2 57 -27z"></path>
<path d="M5792 7402 c-95 -34 -159 -101 -187 -195 -18 -60 -22 -538 -5 -598
17 -61 80 -86 140 -56 37 19 48 67 42 184 l-5 103 112 0 111 0 -1 -125 c-2
-119 -1 -127 21 -150 47 -50 142 -24 159 43 5 20 8 161 7 312 -1 257 -2 278
-22 321 -65 140 -230 211 -372 161z m146 -182 c40 -24 62 -73 62 -135 l0 -45
-105 0 c-103 0 -105 0 -111 25 -10 41 5 110 29 132 52 47 77 52 125 23z"></path>
<path d="M3545 7401 c-123 -32 -212 -139 -223 -267 -4 -51 0 -71 20 -116 53
-115 142 -172 270 -173 43 0 78 -2 78 -5 0 -3 -43 -45 -95 -93 -105 -98 -126
-137 -105 -188 15 -35 56 -59 101 -59 29 0 55 22 227 193 210 207 252 257 252
294 0 14 -13 38 -30 55 -26 25 -36 29 -68 26 -20 -3 -44 -8 -53 -12 -14 -6
-17 3 -21 66 -8 116 -65 205 -161 252 -56 28 -144 40 -192 27z m113 -197 c31
-21 54 -70 46 -97 -17 -57 -81 -89 -136 -68 -33 12 -50 43 -50 89 0 69 85 115
140 76z"></path>
<path d="M6423 7376 l-28 -24 -3 -375 -3 -375 27 -31 c21 -26 33 -31 69 -31
59 0 86 24 95 86 12 71 12 677 1 707 -26 68 -104 89 -158 43z"></path>
<path d="M4573 7358 c-77 -20 -108 -117 -58 -177 54 -64 142 -59 185 11 54 86
-27 193 -127 166z"></path>
<path d="M4249 7021 c-20 -20 -29 -39 -29 -61 0 -22 9 -41 29 -61 l29 -29 327
0 327 0 29 29 c16 16 29 39 29 51 0 29 -26 77 -49 90 -12 6 -140 10 -341 10
l-322 0 -29 -29z"></path>
<path d="M4552 6777 c-57 -32 -75 -121 -36 -174 30 -40 85 -57 128 -39 68 29
100 118 60 174 -32 47 -104 65 -152 39z"></path>
<path d="M7885 6563 c-81 -29 -133 -73 -291 -239 -320 -339 -972 -1022 -1219
-1279 -143 -148 -397 -414 -565 -590 -168 -176 -395 -412 -505 -525 l-201
-205 -71 -220 c-133 -405 -195 -617 -184 -628 7 -7 35 -2 88 15 111 37 713
276 744 296 15 9 46 42 69 72 24 30 120 134 215 230 94 96 281 290 415 430
400 417 1241 1282 1581 1625 175 176 332 338 349 360 169 214 112 524 -118
637 -58 29 -77 33 -161 35 -73 3 -108 -1 -146 -14z m201 -212 c77 -35 122
-127 109 -222 -8 -59 -20 -63 -29 -11 -7 47 -45 106 -71 111 -11 2 -23 8 -27
15 -5 7 -28 -10 -63 -47 l-56 -58 -69 63 c-39 34 -70 65 -70 68 0 13 67 70
100 84 48 21 127 19 176 -3z m-400 -502 l-128 -132 -66 67 -67 66 130 130 130
130 65 -65 65 -64 -129 -132z m-334 -216 c32 -32 58 -62 58 -67 0 -10 -52 -66
-346 -367 l-191 -197 -69 63 -69 63 120 124 c316 324 430 438 434 438 3 0 31
-26 63 -57z m-678 -723 l59 -60 -63 -67 c-35 -38 -213 -221 -395 -408 -323
-333 -521 -538 -658 -683 l-69 -72 -24 19 c-13 10 -51 29 -84 41 l-61 23 38
41 c259 274 579 608 924 961 91 93 185 191 209 218 24 26 48 47 54 47 6 0 38
-27 70 -60z m-1330 -1398 c69 -27 70 -28 118 -112 36 -62 45 -86 36 -92 -7 -4
-16 -8 -21 -8 -4 0 -70 -30 -148 -66 -77 -36 -142 -64 -142 -62 -1 2 -13 18
-25 36 l-24 34 59 149 c32 81 63 148 68 148 6 0 41 -12 79 -27z"></path>
<path d="M6433 5831 c-105 -36 -185 -114 -220 -214 -14 -40 -18 -82 -18 -180
l0 -129 37 -34 c44 -39 78 -43 125 -14 38 23 41 34 45 170 3 91 6 110 26 138
28 39 70 62 112 62 73 0 141 66 127 122 -14 53 -86 98 -157 98 -14 -1 -48 -9
-77 -19z"></path>
<path d="M2975 5796 c-63 -29 -124 -97 -150 -167 -15 -41 -20 -79 -20 -155 0
-96 2 -105 35 -170 38 -75 94 -126 158 -144 22 -6 164 -10 347 -10 183 0 325
4 347 10 64 18 120 69 158 144 33 66 35 74 35 175 0 94 -3 113 -26 162 -33 69
-89 127 -152 157 -45 21 -58 22 -364 22 -313 0 -319 -1 -368 -24z m657 -235
c30 -27 33 -34 31 -82 -2 -38 -8 -58 -24 -76 l-22 -23 -274 0 -274 0 -24 25
c-41 41 -28 145 22 174 11 6 119 11 275 11 l258 0 32 -29z"></path>
<path d="M4450 5811 c-83 -26 -156 -97 -190 -187 -31 -81 -32 -206 -2 -284 25
-64 84 -130 145 -162 l42 -23 595 0 595 0 47 23 c104 51 170 168 171 302 2
135 -57 245 -163 304 l-55 31 -580 2 c-319 1 -591 -2 -605 -6z m1146 -255 c24
-24 34 -43 34 -65 0 -39 -24 -87 -49 -101 -28 -14 -1055 -14 -1083 1 -11 6
-26 26 -34 45 -19 45 -4 105 33 133 25 21 36 21 545 21 l520 0 34 -34z"></path>
<path d="M3009 4826 c-62 -22 -108 -56 -140 -102 -59 -87 -60 -94 -57 -515 l3
-384 27 -51 c15 -29 46 -68 70 -88 73 -63 105 -67 460 -64 301 3 315 4 354 25
59 31 103 79 133 143 l26 55 0 380 0 380 -27 56 c-33 67 -84 121 -141 152 -41
21 -52 22 -357 24 -241 2 -324 0 -351 -11z m626 -252 l25 -27 0 -322 c0 -303
-1 -324 -19 -346 l-19 -24 -272 0 -272 0 -24 28 -24 28 0 315 0 316 29 29 29
29 262 0 261 0 24 -26z"></path>
<path d="M3192 4417 c-32 -34 -30 -89 4 -116 24 -19 40 -21 156 -21 124 0 130
1 153 25 33 32 34 83 2 113 -22 20 -33 22 -158 22 -129 0 -137 -1 -157 -23z"></path>
<path d="M3192 4128 c-31 -34 -35 -68 -13 -105 24 -39 63 -46 211 -41 93 3
103 5 121 27 27 33 25 86 -6 116 -23 24 -29 25 -158 25 -126 0 -135 -1 -155
-22z"></path>
<path d="M4450 4831 c-80 -25 -145 -87 -187 -176 l-28 -60 -3 -874 c-2 -563 1
-893 8 -929 23 -124 88 -212 195 -263 l60 -29 553 0 552 0 63 28 c72 33 128
90 163 166 21 45 24 65 24 178 0 127 0 127 -30 162 -34 39 -79 50 -125 31 -53
-21 -60 -38 -65 -162 -5 -114 -5 -115 -38 -144 l-32 -29 -508 0 c-491 0 -508
1 -540 20 -64 39 -62 5 -62 922 0 773 1 836 18 868 9 19 28 40 42 47 19 10
161 13 603 13 496 0 582 2 607 15 79 41 62 147 -32 197 l-43 23 -585 2 c-322
1 -596 -2 -610 -6z"></path>
<path d="M7245 4510 c-11 -4 -31 -20 -45 -35 l-25 -27 -5 -817 c-6 -908 -1
-850 -73 -885 -30 -14 -76 -16 -327 -16 l-292 0 -34 34 -34 34 0 166 c0 187
-9 225 -59 250 -50 26 -88 21 -128 -19 l-34 -34 3 -213 c3 -205 4 -215 29
-268 33 -70 79 -116 149 -149 l55 -26 355 0 355 0 53 28 c102 54 168 136 191
239 7 30 11 336 11 858 1 902 5 846 -65 876 -38 16 -51 16 -80 4z"></path>
<path d="M4821 4434 c-79 -71 -29 -194 78 -194 64 0 113 78 91 144 -15 47 -42
68 -93 73 -38 5 -48 1 -76 -23z"></path>
<path d="M4621 4154 c-25 -20 -31 -34 -31 -64 0 -30 6 -44 31 -64 l31 -26 253
0 253 0 26 31 c37 44 35 90 -5 123 l-31 26 -248 0 -248 0 -31 -26z"></path>
<path d="M4838 3935 c-53 -30 -72 -99 -43 -155 19 -37 43 -50 90 -50 47 0 90
31 105 74 29 88 -73 175 -152 131z"></path>
<path d="M6695 3830 c-65 -43 -85 -137 -42 -201 62 -93 178 -88 245 11 59 88
-15 210 -127 210 -29 0 -57 -7 -76 -20z"></path>
<path d="M6521 3486 c-51 -28 -65 -95 -30 -139 33 -43 75 -49 301 -45 207 3
208 3 233 29 49 49 43 133 -12 158 -37 17 -461 14 -492 -3z"></path>
<path d="M3004 3289 c-74 -28 -128 -79 -166 -157 -33 -66 -33 -68 -33 -212 0
-88 5 -161 13 -187 30 -98 120 -190 214 -218 63 -18 567 -22 627 -4 85 25 174
117 208 214 24 68 24 310 0 373 -36 94 -107 167 -194 198 -29 10 -109 13 -328
13 -264 0 -295 -2 -341 -20z m627 -248 c28 -29 29 -32 29 -130 0 -180 -2 -181
-307 -181 -308 0 -321 6 -330 138 -7 101 1 143 34 176 l26 26 259 0 260 0 29
-29z"></path>
<path d="M3180 2980 c-30 -30 -27 -90 6 -121 25 -23 31 -24 166 -24 135 0 140
1 159 24 21 26 25 78 6 102 -25 33 -55 39 -186 39 -118 0 -133 -2 -151 -20z"></path>
<path d="M6711 3212 c-48 -24 -73 -62 -78 -119 -5 -57 19 -102 69 -133 66 -40
156 -16 198 52 40 66 15 155 -56 195 -47 27 -87 29 -133 5z"></path>
</g>
</svg><style>@media (prefers-color-scheme: light) { :root { filter: none; } }
</style></svg>